# xmcd CD database file
#
# Track frame offsets:
#	150
#	19127
#	33289
#	44472
#	56459
#	68646
#	81345
#	95546
#	109522
#	125413
#	137627
#	152446
#	167138
#	180426
#	194297
#	208305
#	218983
#	231048
#	242747
#	253329
#	266381
#	277874
#	291252
#	310164
#
# Disc length: 4322 seconds
#
# Revision: 1
# Processed by: cddbd v1.5.2PL0 Copyright (c) Steve Scherf et al.
# Submitted via: CDex 1.70beta2
#
DISCID=5510e018
DTITLE=Jazz à la Gitane vol.4 - Cherchez la femme!
DYEAR=2006
DGENRE=Jazz
TTITLE0=1- Mabel (1937) - Quintette du Hot-Club de France
TTITLE1=2- Cette chanson est pour vous, Madame (1935) - Jean Sablon avec accomp. d'orch.
TTITLE2=3- Naguine (1939) - D.Reinhardt
TTITLE3=4- Daphné (1942) - Sarane Ferret et le Quintette de Paris
TTITLE4=5- Daphné (1954) - Jean Bonnal et son Quartette
TTITLE5=6- Dinah (1941) - André Ekyan et son Swingtette
TTITLE6=7- Bricktop (1948) - D.Reinhardt et le Quintette du Hot-Club de France
TTITLE7=8- Les Yeux noirs (1941) - Quartette Swing Emile Carrara
TTITLE8=9- Les Yeux noirs (1949) - Helmut Zacharias Quintett
TTITLE9=10- Sweet Sue, Just You (1938) - Freddy Valier's String Swing
TTITLE10=11- Sweet Georgia Brown (1937) - D.Reinhardt
TTITLE11=12- My Yiddische Momme (1950) - Marcel Bianchi et son Quartette
TTITLE12=13- Nandette (1941) - Michel Warlop et son Orchestre
TTITLE13=14- Ma Théo (La Minch) (1939) - Trio Ferret
TTITLE14=15- Elza (1951) - Jacob do Bandolim e Regional de Canhoto
TTITLE15=16- Margie (1940) - Noel Chiboust et son Orchestre
TTITLE16=17- Les Yeux noirs (1944) - Les Paul and his Trio
TTITLE17=18- Les Yeux noirs (1946) - Quartette Armand Molinetti
TTITLE18=19- Nobody's Sweetheart (1938) - Oscar Aleman
TTITLE19=20- Odette (1944) - J.Reinhardt et son Ensemble
TTITLE20=21- I Surrender, Dear (1950) - Marcel Bianchi et son Orchestre
TTITLE21=22- I Surrender, Dear (1955) - Matelo Ferret Quartet
TTITLE22=23- Have you met Miss Jones? (1954) - S.Grapelli - Henri Crolla Quartet
TTITLE23=24- What is this thing called Love? (1951) - Jan Mol and the XYZ Trio
EXTD=YEAR: 2006
EXTT0=
EXTT1=
EXTT2=
EXTT3=
EXTT4=
EXTT5=
EXTT6=
EXTT7=
EXTT8=
EXTT9=
EXTT10=
EXTT11=
EXTT12=
EXTT13=
EXTT14=
EXTT15=
EXTT16=
EXTT17=
EXTT18=
EXTT19=
EXTT20=
EXTT21=
EXTT22=
EXTT23=
PLAYORDER=
